HIERARCHY
ROOT Hips
{
    OFFSET   0.000000   0.000000   0.000000
    CHANNELS 6 Xposition Yposition Zposition Zrotation Xrotation Yrotation
    JOINT Chest
    {
        OFFSET   0.000000   8.007240   0.000000
        CHANNELS 3 Zrotation Xrotation Yrotation
        JOINT Chest2
        {
            OFFSET   0.000000  22.077100   0.000000
            CHANNELS 3 Zrotation Xrotation Yrotation
            JOINT Neck
            {
                OFFSET   0.000000  23.254800   0.000000
                CHANNELS 3 Zrotation Xrotation Yrotation
                JOINT Head
                {
                    OFFSET   0.000000  14.370000   1.956600
                    CHANNELS 3 Zrotation Xrotation Yrotation
                    End Site
                    {
                        OFFSET   0.000000  19.566000   0.000000
                    }
                }
            }
            JOINT LeftCollar
            {
                OFFSET   3.911900  19.017000  -0.467064
                CHANNELS 3 Zrotation Xrotation Yrotation
                JOINT LeftShoulder
                {
                    OFFSET  10.383700   0.000000   0.000000
                    CHANNELS 3 Zrotation Xrotation Yrotation
                    JOINT LeftElbow
                    {
                        OFFSET  26.662100   0.001476   0.000517
                        CHANNELS 3 Zrotation Xrotation Yrotation
                        JOINT LeftWrist
                        {
                            OFFSET  28.869000  -0.000025  -0.000106
                            CHANNELS 3 Zrotation Xrotation Yrotation
                            JOINT LeftFinger0
                            {
                                OFFSET   2.044660  -2.323460   3.252850
                                CHANNELS 3 Zrotation Xrotation Yrotation
                                JOINT LeftFinger01
                                {
                                    OFFSET   3.088130   0.000000   0.000000
                                    CHANNELS 3 Zrotation Xrotation Yrotation
                                    JOINT LeftFinger02
                                    {
                                        OFFSET   2.639460   0.000000   0.000000
                                        CHANNELS 3 Zrotation Xrotation Yrotation
                                        End Site
                                        {
                                            OFFSET   2.582190   0.000000   0.000000
                                        }
                                    }
                                }
                            }
                            JOINT LeftFinger1
                            {
                                OFFSET   8.364480   0.000000   3.252850
                                CHANNELS 3 Zrotation Xrotation Yrotation
                                JOINT LeftFinger11
                                {
                                    OFFSET   4.646930   0.000000   0.000000
                                    CHANNELS 3 Zrotation Xrotation Yrotation
                                    JOINT LeftFinger12
                                    {
                                        OFFSET   2.323460   0.000000   0.000000
                                        CHANNELS 3 Zrotation Xrotation Yrotation
                                        End Site
                                        {
                                            OFFSET   2.273050   0.000000   0.000000
                                        }
                                    }
                                }
                            }
                            JOINT LeftFinger2
                            {
                                OFFSET   8.364490   0.000015   1.078090
                                CHANNELS 3 Zrotation Xrotation Yrotation
                                JOINT LeftFinger21
                                {
                                    OFFSET   5.111620   0.000000   0.000000
                                    CHANNELS 3 Zrotation Xrotation Yrotation
                                    JOINT LeftFinger22
                                    {
                                        OFFSET   2.788160   0.000016   0.000000
                                        CHANNELS 3 Zrotation Xrotation Yrotation
                                        End Site
                                        {
                                            OFFSET   2.727660   0.000000   0.000000
                                        }
                                    }
                                }
                            }
                            JOINT LeftFinger3
                            {
                                OFFSET   7.899780   0.000017  -1.078090
                                CHANNELS 3 Zrotation Xrotation Yrotation
                                JOINT LeftFinger31
                                {
                                    OFFSET   4.646930   0.000000   0.000000
                                    CHANNELS 3 Zrotation Xrotation Yrotation
                                    JOINT LeftFinger32
                                    {
                                        OFFSET   2.323470   0.000000   0.000000
                                        CHANNELS 3 Zrotation Xrotation Yrotation
                                        End Site
                                        {
                                            OFFSET   2.273050   0.000000   0.000000
                                        }
                                    }
                                }
                            }
                            JOINT LeftFinger4
                            {
                                OFFSET   7.435090   0.000000  -3.252850
                                CHANNELS 3 Zrotation Xrotation Yrotation
                                JOINT LeftFinger41
                                {
                                    OFFSET   3.717550   0.000000   0.000000
                                    CHANNELS 3 Zrotation Xrotation Yrotation
                                    JOINT LeftFinger42
                                    {
                                        OFFSET   1.858770   0.000000   0.000000
                                        CHANNELS 3 Zrotation Xrotation Yrotation
                                        End Site
                                        {
                                            OFFSET   1.818440   0.000000   0.000000
                                        }
                                    }
                                }
                            }
                        }
                    }
                }
            }
            JOINT RightCollar
            {
                OFFSET  -3.911900  19.017000  -0.467063
                CHANNELS 3 Zrotation Xrotation Yrotation
                JOINT RightShoulder
                {
                    OFFSET -10.383700   0.000019   0.000000
                    CHANNELS 3 Zrotation Xrotation Yrotation
                    JOINT RightElbow
                    {
                        OFFSET -26.662100   0.001175   0.000102
                        CHANNELS 3 Zrotation Xrotation Yrotation
                        JOINT RightWrist
                        {
                            OFFSET -28.869000   0.000016  -0.000079
                            CHANNELS 3 Zrotation Xrotation Yrotation
                            JOINT RightFinger0
                            {
                                OFFSET  -2.044660  -2.323490   3.252850
                                CHANNELS 3 Zrotation Xrotation Yrotation
                                JOINT RightFinger01
                                {
                                    OFFSET  -3.088140   0.000000   0.000000
                                    CHANNELS 3 Zrotation Xrotation Yrotation
                                    JOINT RightFinger02
                                    {
                                        OFFSET  -2.639460   0.000000   0.000000
                                        CHANNELS 3 Zrotation Xrotation Yrotation
                                        End Site
                                        {
                                            OFFSET  -2.582190   0.000000   0.000000
                                        }
                                    }
                                }
                            }
                            JOINT RightFinger1
                            {
                                OFFSET  -8.364480   0.000000   3.252850
                                CHANNELS 3 Zrotation Xrotation Yrotation
                                JOINT RightFinger11
                                {
                                    OFFSET  -4.646930   0.000000   0.000000
                                    CHANNELS 3 Zrotation Xrotation Yrotation
                                    JOINT RightFinger12
                                    {
                                        OFFSET  -2.323470   0.000000   0.000000
                                        CHANNELS 3 Zrotation Xrotation Yrotation
                                        End Site
                                        {
                                            OFFSET  -2.273050   0.000000   0.000000
                                        }
                                    }
                                }
                            }
                            JOINT RightFinger2
                            {
                                OFFSET  -8.364480   0.000000   1.078090
                                CHANNELS 3 Zrotation Xrotation Yrotation
                                JOINT RightFinger21
                                {
                                    OFFSET  -5.111620   0.000000   0.000000
                                    CHANNELS 3 Zrotation Xrotation Yrotation
                                    JOINT RightFinger22
                                    {
                                        OFFSET  -2.788160   0.000000   0.000000
                                        CHANNELS 3 Zrotation Xrotation Yrotation
                                        End Site
                                        {
                                            OFFSET  -2.727660   0.000000   0.000000
                                        }
                                    }
                                }
                            }
                            JOINT RightFinger3
                            {
                                OFFSET  -7.899780   0.000000  -1.078090
                                CHANNELS 3 Zrotation Xrotation Yrotation
                                JOINT RightFinger31
                                {
                                    OFFSET  -4.646930   0.000000   0.000000
                                    CHANNELS 3 Zrotation Xrotation Yrotation
                                    JOINT RightFinger32
                                    {
                                        OFFSET  -2.323470   0.000000   0.000000
                                        CHANNELS 3 Zrotation Xrotation Yrotation
                                        End Site
                                        {
                                            OFFSET  -2.273050   0.000000   0.000000
                                        }
                                    }
                                }
                            }
                            JOINT RightFinger4
                            {
                                OFFSET  -7.435090   0.000000  -3.252850
                                CHANNELS 3 Zrotation Xrotation Yrotation
                                JOINT RightFinger41
                                {
                                    OFFSET  -3.717550   0.000000   0.000000
                                    CHANNELS 3 Zrotation Xrotation Yrotation
                                    JOINT RightFinger42
                                    {
                                        OFFSET  -1.858770   0.000000   0.000000
                                        CHANNELS 3 Zrotation Xrotation Yrotation
                                        End Site
                                        {
                                            OFFSET  -1.818440   0.000000   0.000000
                                        }
                                    }
                                }
                            }
                        }
                    }
                }
            }
        }
    }
    JOINT LeftHip
    {
        OFFSET   9.783040   0.000000   0.000000
        CHANNELS 3 Zrotation Xrotation Yrotation
        JOINT LeftKnee
        {
            OFFSET   0.000032 -41.789100  -0.002222
            CHANNELS 3 Zrotation Xrotation Yrotation
            JOINT LeftAnkle
            {
                OFFSET   0.000087 -41.133200  -0.000135
                CHANNELS 3 Zrotation Xrotation Yrotation
                JOINT LeftToe
                {
                    OFFSET   0.000000  -6.358960  14.674500
                    CHANNELS 3 Zrotation Xrotation Yrotation
                    End Site
                    {
                        OFFSET   0.000000   0.000000   3.913200
                    }
                }
            }
        }
    }
    JOINT RightHip
    {
        OFFSET  -9.783040   0.000000   0.000000
        CHANNELS 3 Zrotation Xrotation Yrotation
        JOINT RightKnee
        {
            OFFSET   0.000047 -41.789100  -0.000896
            CHANNELS 3 Zrotation Xrotation Yrotation
            JOINT RightAnkle
            {
                OFFSET  -0.000117 -41.133300  -0.000248
                CHANNELS 3 Zrotation Xrotation Yrotation
                JOINT RightToe
                {
                    OFFSET   0.000000  -6.358970  14.674500
                    CHANNELS 3 Zrotation Xrotation Yrotation
                    End Site
                    {
                        OFFSET   0.000000   0.000000   3.913200
                    }
                }
            }
        }
    }
}
MOTION
Frames: 5
Frame Time:   0.016667
 -0.105396  89.536100   3.159620  -2.365420  -2.089840   0.483178   1.102730   2.111030  -0.639830   2.231270   4.209220  -1.321570   0.162907  -0.648775  -0.002943   0.263654  -1.331280   6.637760  -6.475210   1.386340   0.267258 -71.299600   8.657310  -2.316140  -2.071680  -5.856880 -11.875000   3.099610 -10.842600  10.342900  42.691500  35.256400 -62.914300 -29.002800   0.006876   0.003872  -9.501360  -0.005275  -0.002382 -34.583200   6.260550  -8.988300 -28.698400   0.001713  -0.000518 -20.088900   0.008164  -0.000416 -28.693400   0.871795  -1.592770 -39.025300  -0.011190  -0.011008 -25.990800   0.002975  -0.007934 -28.433000  -2.143700   3.966480 -36.212400  -0.006379  -0.002747 -24.117500   0.003223  -0.002258 -33.009500  -3.106990   4.769210 -49.708300  -0.008715  -0.002749 -33.105700   0.002309  -0.012948   6.692490  -0.884659   7.374710  73.833700  -1.386000  -1.671370  -2.559690  -5.713930  11.640400  -9.048950 -11.293000   3.115550 -43.965800  31.610100  65.550800  21.720500   0.000367  -0.000079   5.860230   0.006448   0.000896  32.334800   6.035380   9.430370  26.863500  -0.001943   0.002449  18.804500  -0.001780   0.002046  28.507100   3.111740   5.708760  38.270900  -0.003371  -0.003726  25.488400   0.001582   0.003740  28.603500   0.417335   0.765128  37.507100  -0.011117  -0.004513  24.979700  -0.001697  -0.003456  33.471400   0.481060   0.727380  50.211800  -0.000579   0.002322  33.441100  -0.002989   0.001504   2.688750   5.118800   2.434070   1.400210  -0.001285   6.825710  -0.872541  -2.421850   1.950790  -0.000000   0.000000   0.000000   1.429340   0.763761  -5.623200   1.162620   4.359460  -5.221020  -1.864260  -2.852470  -1.239640  -0.000000   0.000000  -0.000000
 -0.105561  89.536000   3.149930  -2.365050  -2.109900   0.483184   1.102670   2.126270  -0.641974   2.231320   4.239650  -1.326170   0.157867  -0.648758  -0.002929   0.257378  -1.323490   6.650980  -6.488370   1.367840   0.256933 -71.312900   8.686470  -2.349890  -2.062030  -5.798360 -11.899500   3.103160 -10.826800  10.305100  42.693900  35.258300 -62.920500 -29.000000   0.006877   0.003881  -9.500010  -0.005275  -0.002395 -34.593000   6.299540  -9.037540 -28.711500   0.001710  -0.000513 -20.098100   0.008162  -0.000413 -28.693000   0.879112  -1.606090 -39.038800  -0.011194  -0.011018 -25.999800   0.002971  -0.007934 -28.434900  -2.144140   3.961880 -36.242900  -0.006385  -0.002732 -24.137800   0.003209  -0.002247 -33.019200  -3.093790   4.746700 -49.721000  -0.008712  -0.002734 -33.114200   0.002309  -0.012952   6.693970  -0.885233   7.382730  73.814500  -1.248820  -1.600510  -2.527210  -5.720960  11.599500  -9.040480 -11.226900   3.103970 -43.949900  31.578300  65.522600  21.717800   0.000357  -0.000040   5.858900   0.006434   0.000873  32.336600   6.040100   9.436780  26.864700  -0.001934   0.002438  18.805300  -0.001764   0.002039  28.505000   3.121330   5.726400  38.270800  -0.003366  -0.003743  25.488300   0.001574   0.003739  28.603200   0.430172   0.788654  37.514300  -0.011132  -0.004535  24.984500  -0.001691  -0.003471  33.471800   0.502394   0.759521  50.212600  -0.000573   0.002313  33.441700  -0.002987   0.001497   2.689860   5.117390   2.431820   1.401740   0.036100   6.829460  -0.875193  -2.433780   1.950830  -0.000000   0.000000  -0.000000   1.430810   0.774121  -5.619430   1.162650   4.358950  -5.231060  -1.863590  -2.843100  -1.229980   0.000000   0.000000  -0.000000
 -0.105726  89.535900   3.134140  -2.364540  -2.147930   0.483196   1.102810   2.155120  -0.645272   2.232200   4.297260  -1.333370   0.151451  -0.648742  -0.002914   0.248988  -1.315680   6.670480  -6.508640   1.334990   0.246607 -71.353200   8.741690  -2.413570  -2.046420  -5.698110 -11.951600   3.115560 -10.806600  10.248700  42.702100  35.268200 -62.959100 -28.991200   0.006879   0.003890  -9.495600  -0.005273  -0.002413 -34.617100   6.338520  -9.086790 -28.735600   0.001707  -0.000501 -20.114900   0.008158  -0.000407 -28.692400   0.886429  -1.619400 -39.064400  -0.011205  -0.011044 -26.016900   0.002961  -0.007935 -28.438800  -2.147110   3.957290 -36.299300  -0.006401  -0.002697 -24.175400   0.003175  -0.002223 -33.035700  -3.080580   4.724190 -49.744100  -0.008706  -0.002700 -33.129600   0.002307  -0.012960   6.698020  -0.889332   7.396380  73.794600  -1.026980  -1.486160  -2.489340  -5.728000  11.558700  -9.036260 -11.127800   3.079310 -43.935400  31.543800  65.497200  21.699200   0.000332  -0.000000   5.849590   0.006406   0.000848  32.334100   6.057100   9.463840  26.865900  -0.001907   0.002414  18.806100  -0.001728   0.002020  28.499700   3.146500   5.772910  38.269800  -0.003356  -0.003780  25.487700   0.001558   0.003735  28.602400   0.462322   0.847635  37.521500  -0.011169  -0.004583  24.989300  -0.001675  -0.003506  33.471700   0.538377   0.814068  50.213500  -0.000557   0.002290  33.442200  -0.002983   0.001478   2.693370   5.115980   2.426980   1.401230   0.090354   6.838520  -0.879223  -2.450140   1.950880   0.000000   0.000000   0.000000   1.433690   0.799645  -5.610830   1.162700   4.355740  -5.248510  -1.862490  -2.826590  -1.214740  -0.000000   0.000000   0.000000
 -0.105666  89.535800   3.122570  -2.365630  -2.188540   0.479452   1.104350   2.185420  -0.647741   2.235900   4.357780  -1.339180   0.150017  -0.648772  -0.002919   0.246470  -1.315740   6.682330  -6.520560   1.303610   0.247970 -71.422100   8.791070  -2.482310  -2.021470  -5.590350 -12.005900   3.129740 -10.804400  10.212200  42.706100  35.290700 -63.090300 -28.978400   0.006876   0.003876  -9.489220  -0.005271  -0.002418 -34.648700   6.333540  -9.069160 -28.760400   0.001705  -0.000483 -20.132200   0.008153  -0.000396 -28.692400   0.884738  -1.616180 -39.099500  -0.011220  -0.011081 -26.040200   0.002944  -0.007939 -28.443400  -2.157170   3.972720 -36.358500  -0.006425  -0.002645 -24.214800   0.003123  -0.002190 -33.054600  -3.084590   4.727560 -49.771300  -0.008698  -0.002650 -33.147800   0.002303  -0.012972   6.703800  -0.898855   7.406920  73.796600  -0.857488  -1.383030  -2.480900  -5.722390  11.590400  -9.090650 -11.076700   3.044910 -43.983400  31.567800  65.534600  21.656700   0.000296  -0.000000   5.828350   0.006373   0.000844  32.316200   6.087920   9.518780  26.854800  -0.001859   0.002386  18.798400  -0.001676   0.001989  28.492700   3.186660   5.847470  38.246400  -0.003344  -0.003833  25.472100   0.001537   0.003726  28.601100   0.510705   0.936509  37.497400  -0.011226  -0.004653  24.973300  -0.001653  -0.003558  33.449200   0.572419   0.865871  50.180600  -0.000529   0.002253  33.420300  -0.002980   0.001451   2.699480   5.131820   2.420110   1.396340   0.120449   6.852180  -0.882260  -2.455950   1.946660  -0.000000   0.000000   0.000000   1.437140   0.838283  -5.598670   1.162400   4.343670  -5.265120  -1.858000  -2.811200  -1.204000   0.000000   0.000000   0.000000
 -0.105246  89.535700   3.110910  -2.368160  -2.233580   0.471511   1.106540   2.219880  -0.649063   2.240690   4.426630  -1.342440   0.149616  -0.648984  -0.002924   0.245033  -1.316320   6.687920  -6.531620   1.271470   0.249334 -71.516100   8.865860  -2.555660  -1.998850  -5.523030 -12.096000   3.169210 -10.801600  10.194200  42.703800  35.284300 -63.211300 -28.953900   0.006874   0.003862  -9.476970  -0.005268  -0.002423 -34.681000   6.328560  -9.051520 -28.785700   0.001702  -0.000459 -20.150000   0.008145  -0.000382 -28.692500   0.883048  -1.612950 -39.122500  -0.011240  -0.011125 -26.055500   0.002920  -0.007944 -28.447900  -2.164690   3.988150 -36.419800  -0.006457  -0.002589 -24.255600   0.003062  -0.002154 -33.066700  -3.088610   4.730930 -49.791500  -0.008688  -0.002593 -33.161200   0.002299  -0.012987   6.713140  -0.913772   7.419820  73.800300  -0.708797  -1.323380  -2.472590  -5.684640  11.736800  -9.202490 -11.028900   3.010840 -44.045800  31.619500  65.614200  21.590000   0.000252  -0.000000   5.795020   0.006332   0.000844  32.293400   6.133570   9.595630  26.843700  -0.001801   0.002351  18.790600  -0.001617   0.001951  28.485000   3.236340   5.939780  38.206100  -0.003329  -0.003888  25.445300   0.001512   0.003714  28.599100   0.571829   1.048770  37.459800  -0.011293  -0.004726  24.948300  -0.001626  -0.003612  33.411400   0.598253   0.906628  50.124300  -0.000495   0.002207  33.382800  -0.002976   0.001416   2.705870   5.167100   2.413570   1.390760   0.133671   6.868280  -0.884043  -2.457330   1.939550  -0.000000   0.000000  -0.000000   1.440340   0.885083  -5.584610   1.161780   4.326450  -5.280100  -1.850790  -2.795340  -1.195030   0.000000   0.000000   0.000000
